<svg width="310" height="33" viewBox="0 0 310 33" fill="none" xmlns="http://www.w3.org/2000/svg">
<path d="M67.3594 26.7943V25.8974L68.0816 25.8356C69.5576 25.7119 70.3112 24.9697 70.3112 23.5471V8.39366C70.3112 6.97109 69.5576 6.22888 68.0816 6.10518L67.3594 6.04333V5.1465H76.7488C83.626 5.1465 88.6505 9.6616 88.6505 15.8157C88.6505 22.0317 83.4376 26.7943 76.686 26.7943H67.3594ZM72.5094 25.5263H76.3092C81.6476 25.5263 84.9763 21.8153 84.9763 15.9395C84.9763 10.2801 81.5848 6.41444 76.5918 6.41444H72.5094V7.03294H73.6399V24.9078H72.5094V25.5263ZM101.346 27.1344C95.568 27.1344 90.9204 22.5266 90.9204 16.0632C90.9204 9.59975 95.6623 4.77539 101.472 4.77539C107.218 4.77539 111.897 9.35235 111.897 15.8157C111.897 22.2792 107.156 27.1344 101.346 27.1344ZM101.66 25.8046C105.397 25.8046 108.192 22.2482 108.192 16.558C108.192 10.0327 105.146 6.07426 101.032 6.07426C97.2952 6.07426 94.5004 9.63067 94.5004 15.3209C94.5004 21.8462 97.5464 25.8046 101.66 25.8046ZM113.866 12.7232L113.74 12.5377C115.75 11.6099 117.006 9.84715 117.006 8.11533V7.52775H116.504V8.26996C116.441 8.33181 116.158 8.39366 115.907 8.39366C114.996 8.39366 114.243 7.62052 114.243 6.66184C114.243 5.61038 115.059 4.80632 116.158 4.80632C117.446 4.80632 118.294 5.85778 118.294 7.40405C118.294 9.72345 116.535 11.8264 113.866 12.7232ZM128.885 27.1344C126.342 27.1344 124.175 26.0211 122.416 23.7636L122.448 24.815C122.542 24.9387 123.201 25.5263 123.421 25.7119L121.097 27.0726L121.003 19.5268H122.102L122.919 21.2895C124.3 24.2893 126.279 25.7428 128.948 25.7428C131.743 25.7428 133.501 24.2275 133.501 21.8771C133.501 20.2072 132.371 18.8464 130.298 18.0424L124.929 15.9395C122.448 14.9498 121.16 13.218 121.16 10.8986C121.16 7.31127 123.798 4.83724 127.598 4.83724C130.173 4.83724 132.308 6.13611 133.627 8.45551L133.596 7.31127C133.439 7.06387 132.748 6.25981 132.622 6.16703L134.883 4.89909L134.977 12.1356H133.878L133.313 10.8368C131.931 7.65145 130.141 6.22888 127.504 6.22888C125.305 6.22888 123.861 7.52775 123.861 9.56882C123.861 11.0842 124.866 12.3212 126.656 13.0325L132.434 15.2591C134.977 16.2487 136.391 18.1661 136.391 20.671C136.391 24.5367 133.376 27.1344 128.885 27.1344ZM159.312 23.9491C157.333 26.0211 155.198 27.0726 152.403 27.0726C148.415 27.0726 145.557 24.6913 145.557 21.2895C145.557 18.8774 146.468 17.2692 151.021 14.8261C149.671 12.7232 149.169 11.4243 149.169 10.0018C149.169 7.43497 151.116 4.89909 155.072 4.89909C157.553 4.89909 159.532 6.53814 159.532 8.61014C159.532 10.342 158.527 11.579 155.732 13.0634L153.22 14.4241L153.596 14.9498L154.444 14.486C156.643 17.5476 158.778 20.1144 159.971 21.4442C160.411 20.7638 160.882 19.8979 161.447 18.6609L162.044 17.3929C162.735 15.9085 162.515 14.9189 161.227 14.7643L160.505 14.6715V13.8674H166.629V14.6406C165.372 14.9189 164.525 15.5683 163.897 16.7126L162.483 19.3412C161.918 20.4236 161.322 21.3823 160.693 22.2482C162.672 24.3202 164.054 25.0934 165.844 25.0934C166.472 25.0934 167.476 25.0006 167.979 24.7841C166.911 26.052 165.153 26.9489 163.426 26.9489C161.855 26.9489 160.693 26.5159 159.092 25.0934L159.783 24.3821L159.312 23.9491ZM151.869 9.07402C151.901 10.3729 152.34 11.4862 153.628 13.3726C155.795 12.383 156.957 10.7749 156.957 8.79569C156.957 7.12572 155.92 5.91963 154.507 5.91963C152.968 5.91963 151.869 7.24942 151.869 9.07402ZM157.899 23.9491C155.92 21.8771 152.497 17.0218 151.398 15.3828C149.577 16.558 148.635 18.3207 148.635 20.5473C148.635 23.6399 150.55 25.65 153.439 25.65C155.638 25.65 156.894 24.815 157.899 23.9491ZM176.257 26.7943V25.8974L176.979 25.8356C178.455 25.7119 179.209 24.9697 179.209 23.5471V8.39366C179.209 6.97109 178.455 6.22888 176.979 6.10518L176.257 6.04333V5.1465H185.646C192.524 5.1465 197.548 9.6616 197.548 15.8157C197.548 22.0317 192.335 26.7943 185.584 26.7943H176.257ZM181.407 25.5263H185.207C190.545 25.5263 193.874 21.8153 193.874 15.9395C193.874 10.2801 190.482 6.41444 185.489 6.41444H181.407V7.03294H182.537V24.9078H181.407V25.5263ZM210.244 27.1344C204.466 27.1344 199.818 22.5266 199.818 16.0632C199.818 9.59975 204.56 4.77539 210.369 4.77539C216.116 4.77539 220.795 9.35235 220.795 15.8157C220.795 22.2792 216.053 27.1344 210.244 27.1344ZM210.558 25.8046C214.295 25.8046 217.09 22.2482 217.09 16.558C217.09 10.0327 214.043 6.07426 209.93 6.07426C206.193 6.07426 203.398 9.63067 203.398 15.3209C203.398 21.8462 206.444 25.8046 210.558 25.8046ZM233.464 27.1344C228.503 27.1344 225.362 24.2584 225.362 19.6814V8.39366C225.362 6.97109 224.609 6.22888 223.133 6.10518L222.411 6.04333V5.1465H231.612V6.04333L230.889 6.10518C229.413 6.22888 228.66 6.97109 228.66 8.39366V19.0629C228.66 22.8049 230.889 25.2171 234.312 25.2171C238.143 25.2171 240.499 22.3101 240.499 17.6403V8.73384C240.499 7.18757 239.745 6.32166 238.238 6.13611L237.515 6.04333V5.1465H245.115V6.04333L244.393 6.13611C242.885 6.32166 242.163 7.15664 242.163 8.73384V18.0424C242.163 23.578 238.771 27.1344 233.464 27.1344ZM257.133 27.0726C251.166 27.0726 246.738 22.4647 246.738 16.2487C246.738 9.75437 251.323 4.83724 257.447 4.83724C260.367 4.83724 262.722 6.04333 264.23 8.39366V7.31127C264.167 7.15664 263.445 6.38351 263.256 6.22888L265.643 4.89909V12.4758H264.575L263.978 11.0842C262.628 7.89885 260.367 6.29073 257.384 6.29073C253.207 6.29073 250.412 10.1255 250.412 15.8157C250.412 21.5679 253.521 25.4335 258.137 25.4335C260.241 25.4335 262.094 24.7223 264.23 23.1141V22.341L263.036 23.1451V19.6196C263.036 18.2279 262.251 17.4548 260.65 17.3311L259.927 17.2692V16.3724H268.94V17.2692L268.218 17.3311C266.836 17.4548 266.145 18.197 266.145 19.6196V27.1344L263.916 25.0624C262.063 26.3922 259.77 27.0726 257.133 27.0726ZM275.217 16.2796V16.8981H276.347V23.5471C276.347 24.9697 277.101 25.7119 278.577 25.8356L279.299 25.8974V26.7943H270.067V25.8974L270.789 25.8356C272.265 25.7119 273.018 24.9697 273.018 23.5471V8.39366C273.018 6.97109 272.265 6.22888 270.789 6.10518L270.067 6.04333V5.1465H279.299V6.04333L278.577 6.10518C277.101 6.22888 276.347 6.97109 276.347 8.39366V15.1972H286.679V8.39366C286.679 6.97109 285.925 6.22888 284.449 6.10518L283.727 6.04333V5.1465H292.959V6.04333L292.237 6.10518C290.761 6.22888 290.007 6.97109 290.007 8.39366V23.5471C290.007 24.9697 290.761 25.7119 292.237 25.8356L292.959 25.8974V26.7943H283.727V25.8974L284.449 25.8356C285.925 25.7119 286.679 24.9697 286.679 23.5471V16.8981H287.809V16.2796H275.217ZM302.397 27.1344C299.854 27.1344 297.687 26.0211 295.928 23.7636L295.96 24.815C296.054 24.9387 296.714 25.5263 296.933 25.7119L294.61 27.0726L294.515 19.5268H295.614L296.431 21.2895C297.813 24.2893 299.791 25.7428 302.46 25.7428C305.255 25.7428 307.014 24.2275 307.014 21.8771C307.014 20.2072 305.883 18.8464 303.811 18.0424L298.441 15.9395C295.96 14.9498 294.672 13.218 294.672 10.8986C294.672 7.31127 297.31 4.83724 301.11 4.83724C303.685 4.83724 305.82 6.13611 307.139 8.45551L307.108 7.31127C306.951 7.06387 306.26 6.25981 306.134 6.16703L308.395 4.89909L308.49 12.1356H307.39L306.825 10.8368C305.444 7.65145 303.654 6.22888 301.016 6.22888C298.817 6.22888 297.373 7.52775 297.373 9.56882C297.373 11.0842 298.378 12.3212 300.168 13.0325L305.946 15.2591C308.49 16.2487 309.903 18.1661 309.903 20.671C309.903 24.5367 306.888 27.1344 302.397 27.1344Z" fill="#FFF8F0"/>
<path d="M39.517 2.40747C22.5246 1.30299 10.9942 3.51193 8.26318 4.34026C4.19217 5.57505 12.2078 9.31042 23.4349 9.0343C32.8666 8.80231 38.6579 7.596 42.2478 6.39759C42.9312 6.16947 43.5348 5.94163 44.0685 5.72086C47.4063 4.34026 49.949 7.66437 50.1372 9.0343C50.4406 11.2433 48.0132 13.1761 41.641 15.3851C36.5433 17.1522 25.559 18.73 14.0285 20.0791C4.62208 21.1796 3.71173 21.1836 1.89103 23.9448C-0.0837567 26.9396 7.35295 30.2955 14.0285 30.5716C20.7041 30.8477 32.7331 30.8632 40.4273 28.3627C44.6754 26.9821 46.6491 26.1046 47.4063 24.497C48.3166 22.5642 43.3605 22.196 41.641 21.4597" stroke="#FFF4F0" stroke-width="3"/>
<path d="M41.9445 6.54883C41.2365 12.1633 37.4537 23.6682 27.9865 24.7727C16.1525 26.1533 11.9045 18.1458 8.87012 12.3473" stroke="#FFF4F0" stroke-width="3"/>
</svg>
