<svg width="75" height="75" viewBox="0 0 75 75" fill="none" xmlns="http://www.w3.org/2000/svg">
<path d="M74.1436 44.9262C73.7663 44.548 73.2931 44.2797 72.7748 44.1501C72.2566 44.0206 71.7128 44.0346 71.2019 44.1907C65.5928 45.8867 59.6288 46.0289 53.9452 44.6021C48.2617 43.1753 43.0717 40.233 38.9281 36.0886C34.7846 31.9442 31.8429 26.7531 30.4164 21.0684C28.9899 15.3837 29.132 9.41838 30.8277 3.80811C30.9851 3.2969 31.0002 2.75245 30.8713 2.23332C30.7425 1.71418 30.4746 1.24 30.0964 0.861769C29.7183 0.48354 29.2442 0.215573 28.7251 0.0866884C28.2061 -0.0421964 27.6618 -0.0271232 27.1507 0.130287C19.3958 2.50633 12.5878 7.26819 7.69531 13.7382C3.41672 19.42 0.806895 26.1824 0.159033 33.2659C-0.488828 40.3494 0.850946 47.4733 4.02784 53.8372C7.20473 60.2011 12.0929 65.5528 18.1431 69.2912C24.1933 73.0296 31.1659 75.0065 38.2775 74.9998C46.5742 75.0251 54.6501 72.3274 61.2665 67.3205C67.7352 62.427 72.4961 55.6176 74.8717 47.8611C75.0272 47.3518 75.0416 46.8098 74.9134 46.293C74.7852 45.7761 74.5191 45.3037 74.1436 44.9262ZM57.7292 62.6203C51.4985 67.3141 43.7824 69.5989 36.0012 69.0539C28.22 68.509 20.8975 65.171 15.3816 59.6544C9.86579 54.1379 6.5279 46.8142 5.98243 39.0314C5.43695 31.2486 7.7206 23.5307 12.413 17.2984C15.4701 13.2604 19.4225 9.98704 23.959 7.73603C23.7006 9.55003 23.5703 11.38 23.5692 13.2123C23.5799 23.3534 27.6124 33.0761 34.7817 40.2469C41.9511 47.4177 51.6717 51.451 61.8107 51.4617C63.6463 51.4612 65.4796 51.3309 67.2969 51.0719C65.0442 55.6101 61.769 59.5633 57.7292 62.6203Z" fill="#FFF8F0"/>
</svg>
