<svg width="227" height="30" viewBox="0 0 227 30" fill="none" xmlns="http://www.w3.org/2000/svg">
<path d="M25.888 24.216C25.12 24.216 24.48 23.992 23.968 23.544C22.944 22.712 22.656 21.656 23.104 20.376C23.104 20.312 23.328 19.544 23.776 18.072C24.288 16.6 24.864 14.936 25.504 13.08C25.824 11.992 26.112 11.064 26.368 10.296C26.624 9.464 26.848 8.728 27.04 8.088C25.312 8.728 23.2 9.528 20.704 10.488C18.208 11.384 15.584 12.344 12.832 13.368C10.144 14.392 7.52 15.384 4.96 16.344C4.256 16.6 3.552 16.568 2.848 16.248C2.08 15.864 1.536 15.288 1.216 14.52C0.96 13.816 1.024 13.112 1.408 12.408C1.728 11.64 2.272 11.096 3.04 10.776C5.92 9.752 8.896 8.696 11.968 7.608C15.04 6.456 17.888 5.4 20.512 4.44C23.136 3.416 25.28 2.584 26.944 1.944C28.608 1.304 29.44 0.983997 29.44 0.983997C29.76 0.919998 30.08 0.887999 30.4 0.887999C30.72 0.823999 31.008 0.855999 31.264 0.983997C32.16 1.112 32.8 1.624 33.184 2.52C33.504 3.032 33.632 3.704 33.568 4.536C33.568 5.304 33.408 6.424 33.088 7.896C32.896 8.728 32.64 9.656 32.32 10.68C32.064 11.64 31.712 12.76 31.264 14.04C31.2 14.296 31.136 14.52 31.072 14.712C31.008 14.904 30.944 15.128 30.88 15.384C33.44 13.976 36.576 12.504 40.288 10.968C40.992 10.648 41.696 10.648 42.4 10.968C43.168 11.224 43.68 11.704 43.936 12.408C44.32 13.112 44.352 13.848 44.032 14.616C43.712 15.384 43.2 15.928 42.496 16.248C39.616 17.528 37.024 18.744 34.72 19.896C32.48 21.048 30.688 21.976 29.344 22.68C28 23.384 27.328 23.736 27.328 23.736C26.944 24.056 26.464 24.216 25.888 24.216ZM63.2005 24.216C62.4325 24.216 61.7925 23.992 61.2805 23.544C60.2565 22.712 59.9685 21.656 60.4165 20.376C60.4165 20.312 60.6405 19.544 61.0885 18.072C61.6005 16.6 62.1765 14.936 62.8165 13.08C63.1365 11.992 63.4245 11.064 63.6805 10.296C63.9365 9.464 64.1605 8.728 64.3525 8.088C62.6245 8.728 60.5125 9.528 58.0165 10.488C55.5205 11.384 52.8965 12.344 50.1445 13.368C47.4565 14.392 44.8325 15.384 42.2725 16.344C41.5685 16.6 40.8645 16.568 40.1605 16.248C39.3925 15.864 38.8485 15.288 38.5285 14.52C38.2725 13.816 38.3365 13.112 38.7205 12.408C39.0405 11.64 39.5845 11.096 40.3525 10.776C43.2325 9.752 46.2085 8.696 49.2805 7.608C52.3525 6.456 55.2005 5.4 57.8245 4.44C60.4485 3.416 62.5925 2.584 64.2565 1.944C65.9205 1.304 66.7525 0.983997 66.7525 0.983997C67.0725 0.919998 67.3925 0.887999 67.7125 0.887999C68.0325 0.823999 68.3205 0.855999 68.5765 0.983997C69.4725 1.112 70.1125 1.624 70.4965 2.52C70.8165 3.032 70.9445 3.704 70.8805 4.536C70.8805 5.304 70.7205 6.424 70.4005 7.896C70.2085 8.728 69.9525 9.656 69.6325 10.68C69.3765 11.64 69.0245 12.76 68.5765 14.04C68.5125 14.296 68.4485 14.52 68.3845 14.712C68.3205 14.904 68.2565 15.128 68.1925 15.384C70.7525 13.976 73.8885 12.504 77.6005 10.968C78.3045 10.648 79.0085 10.648 79.7125 10.968C80.4805 11.224 80.9925 11.704 81.2485 12.408C81.6325 13.112 81.6645 13.848 81.3445 14.616C81.0245 15.384 80.5125 15.928 79.8085 16.248C76.9285 17.528 74.3365 18.744 72.0325 19.896C69.7925 21.048 68.0005 21.976 66.6565 22.68C65.3125 23.384 64.6405 23.736 64.6405 23.736C64.2565 24.056 63.7765 24.216 63.2005 24.216ZM112.321 23.256C111.873 23.256 111.457 23.192 111.073 23.064C109.857 22.808 108.993 22.072 108.481 20.856C108.097 19.768 108.193 18.552 108.769 17.208C109.409 15.864 110.241 14.36 111.265 12.696C111.649 12.12 112.001 11.544 112.321 10.968C112.705 10.328 113.025 9.752 113.281 9.24C113.409 9.048 113.505 8.888 113.569 8.76C113.633 8.568 113.697 8.408 113.761 8.28C111.841 7.96 109.601 7.896 107.041 8.088C104.545 8.216 101.729 8.696 98.593 9.528C95.841 10.232 92.865 11.16 89.665 12.312C86.529 13.4 83.201 14.712 79.681 16.248C78.977 16.504 78.273 16.504 77.569 16.248C76.865 15.992 76.353 15.512 76.033 14.808C75.649 14.104 75.617 13.368 75.937 12.6C76.257 11.768 76.769 11.224 77.473 10.968C81.057 9.368 84.481 7.992 87.745 6.84C91.073 5.624 94.209 4.664 97.153 3.96C105.025 1.976 111.457 1.656 116.449 3C117.921 3.384 118.945 4.28 119.521 5.688C120.097 7.096 119.969 8.664 119.137 10.392C118.305 12.12 117.313 13.912 116.161 15.768C116.097 15.896 116.001 16.056 115.873 16.248C115.745 16.44 115.617 16.664 115.489 16.92C116.961 16.6 119.137 15.96 122.017 15C124.897 14.04 128.865 12.632 133.921 10.776C134.625 10.52 135.329 10.584 136.033 10.968C136.801 11.288 137.313 11.832 137.569 12.6C137.889 13.304 137.889 14.04 137.569 14.808C137.249 15.512 136.673 16.024 135.841 16.344C132.897 17.368 130.209 18.296 127.777 19.128C125.345 19.96 123.169 20.664 121.249 21.24C118.689 22.008 116.737 22.552 115.393 22.872C114.049 23.128 113.025 23.256 112.321 23.256ZM142.836 29.688C142.388 29.688 141.94 29.624 141.492 29.496C141.044 29.432 140.596 29.368 140.148 29.304C138.996 28.984 138.196 28.312 137.748 27.288C137.172 26.008 137.172 24.472 137.748 22.68C138.388 20.824 139.412 18.456 140.82 15.576C141.076 15.064 141.332 14.488 141.588 13.848C141.908 13.208 142.196 12.6 142.452 12.024C141.62 12.344 140.724 12.888 139.764 13.656C138.868 14.36 137.94 15.096 136.98 15.864C136.34 16.312 135.636 16.504 134.868 16.44C134.036 16.312 133.364 15.96 132.852 15.384C132.404 14.744 132.244 14.04 132.372 13.272C132.436 12.504 132.756 11.832 133.332 11.256C134.228 10.616 135.156 9.912 136.116 9.144C137.14 8.376 138.164 7.736 139.188 7.224C141.812 5.88 144.212 5.528 146.388 6.168C147.412 6.36 148.18 7 148.692 8.088C149.204 9.112 149.172 10.392 148.596 11.928C148.084 13.464 147.188 15.544 145.908 18.168C145.588 18.936 145.236 19.704 144.852 20.472C144.532 21.24 144.212 21.976 143.892 22.68C143.828 22.936 143.732 23.16 143.604 23.352C143.54 23.544 143.476 23.736 143.412 23.928C144.756 23.736 146.708 23.064 149.268 21.912C151.892 20.696 155.412 18.328 159.828 14.808C162.196 12.952 164.34 11.16 166.26 9.432C168.18 7.64 169.716 6.168 170.868 5.016C172.02 3.864 172.596 3.288 172.596 3.288C173.364 2.392 174.292 2.104 175.38 2.424C175.892 2.488 176.308 2.712 176.628 3.096C176.948 3.416 177.204 3.736 177.396 4.056C177.844 4.952 177.876 6.008 177.492 7.224C177.172 8.376 176.468 10.264 175.38 12.888C174.996 13.72 174.612 14.552 174.228 15.384C173.908 16.216 173.588 16.984 173.268 17.688C173.204 17.944 173.14 18.168 173.076 18.36C173.076 18.488 173.044 18.616 172.98 18.744C174.196 18.552 175.476 18.04 176.82 17.208C178.228 16.312 179.572 15.32 180.852 14.232C182.196 13.144 183.316 12.216 184.212 11.448C184.852 10.872 185.556 10.616 186.324 10.68C187.092 10.744 187.764 11.064 188.34 11.64C188.852 12.28 189.076 12.984 189.012 13.752C189.012 14.52 188.692 15.192 188.052 15.768C186.068 17.496 184.02 19.128 181.908 20.664C179.86 22.2 177.78 23.352 175.668 24.12C173.62 24.824 171.54 24.92 169.428 24.408C168.404 23.96 167.668 23.32 167.22 22.488C166.836 21.592 166.708 20.6 166.836 19.512C167.028 18.424 167.412 17.08 167.988 15.48C167.284 16.12 166.548 16.728 165.78 17.304C165.076 17.88 164.308 18.52 163.476 19.224C154.644 26.2 147.764 29.688 142.836 29.688ZM208.138 24.216C207.37 24.216 206.73 23.992 206.218 23.544C205.194 22.712 204.906 21.656 205.354 20.376C205.354 20.312 205.578 19.544 206.026 18.072C206.538 16.6 207.114 14.936 207.754 13.08C208.074 11.992 208.362 11.064 208.618 10.296C208.874 9.464 209.098 8.728 209.29 8.088C207.562 8.728 205.45 9.528 202.954 10.488C200.458 11.384 197.834 12.344 195.082 13.368C192.394 14.392 189.77 15.384 187.21 16.344C186.506 16.6 185.802 16.568 185.098 16.248C184.33 15.864 183.786 15.288 183.466 14.52C183.21 13.816 183.274 13.112 183.658 12.408C183.978 11.64 184.522 11.096 185.29 10.776C188.17 9.752 191.146 8.696 194.218 7.608C197.29 6.456 200.138 5.4 202.762 4.44C205.386 3.416 207.53 2.584 209.194 1.944C210.858 1.304 211.69 0.983997 211.69 0.983997C212.01 0.919998 212.33 0.887999 212.65 0.887999C212.97 0.823999 213.258 0.855999 213.514 0.983997C214.41 1.112 215.05 1.624 215.434 2.52C215.754 3.032 215.882 3.704 215.818 4.536C215.818 5.304 215.658 6.424 215.338 7.896C215.146 8.728 214.89 9.656 214.57 10.68C214.314 11.64 213.962 12.76 213.514 14.04C213.45 14.296 213.386 14.52 213.322 14.712C213.258 14.904 213.194 15.128 213.13 15.384C215.69 13.976 218.826 12.504 222.538 10.968C223.242 10.648 223.946 10.648 224.65 10.968C225.418 11.224 225.93 11.704 226.186 12.408C226.57 13.112 226.602 13.848 226.282 14.616C225.962 15.384 225.45 15.928 224.746 16.248C221.866 17.528 219.274 18.744 216.97 19.896C214.73 21.048 212.938 21.976 211.594 22.68C210.25 23.384 209.578 23.736 209.578 23.736C209.194 24.056 208.714 24.216 208.138 24.216Z" fill="#1F1F1F" fill-opacity="0.25"/>
</svg>
