<svg width="971" height="132" viewBox="0 0 971 132" fill="none" xmlns="http://www.w3.org/2000/svg">
<path d="M77.1875 44.8125C77.1875 42.0625 76.6458 39.7292 75.5625 37.8125C74.5208 35.8542 73.125 34.2083 71.375 32.875C69.6667 31.5417 67.7083 30.5 65.5 29.75C63.2917 29 61.0417 28.4375 58.75 28.0625C55.9583 27.6042 53.1667 27.2708 50.375 27.0625C47.5833 26.8125 44.75 26.6875 41.875 26.6875C40.6667 26.6875 39.3542 26.75 37.9375 26.875C36.5625 26.9583 35.125 27.0833 33.625 27.25C32.125 27.375 30.6042 27.5208 29.0625 27.6875C27.5625 27.8125 26.0833 27.8958 24.625 27.9375C23.9167 31.5208 23.2083 35.1042 22.5 38.6875C21.8333 42.2292 21.2083 45.5417 20.625 48.625C20.0417 51.6667 19.5417 54.3542 19.125 56.6875C18.7083 59.0208 18.4375 60.7292 18.3125 61.8125C17.9792 64.1875 17.6458 66.6667 17.3125 69.25C17.0208 71.7917 16.875 74.125 16.875 76.25C16.875 77.2917 16.9167 78.2083 17 79C17.0833 79.7917 17.2292 80.5417 17.4375 81.25C21.2708 80.5833 25.3125 79.5417 29.5625 78.125C33.8125 76.6667 38.5417 75.0625 43.75 73.3125C46.5 72.3958 49.0833 71.4583 51.5 70.5C53.9583 69.5417 56.1667 68.6042 58.125 67.6875C60.125 66.7292 61.8542 65.8125 63.3125 64.9375C64.8125 64.0208 66 63.1667 66.875 62.375C67.1667 62.125 67.6042 61.6458 68.1875 60.9375C68.8125 60.2292 69.5 59.375 70.25 58.375C71.0417 57.375 71.8333 56.2917 72.625 55.125C73.4583 53.9167 74.2083 52.7083 74.875 51.5C75.5417 50.25 76.0833 49.0625 76.5 47.9375C76.9583 46.7708 77.1875 45.7292 77.1875 44.8125ZM92.4375 44.8125C92.4375 50.1458 90.3542 55.4375 86.1875 60.6875C82.3958 65.4792 77.3958 69.9583 71.1875 74.125C68.4375 76 65.4583 77.8125 62.25 79.5625C59.0417 81.2708 55.8542 82.8542 52.6875 84.3125C49.4792 85.7708 46.4375 87.0417 43.5625 88.125C40.7292 89.2083 38.0833 90.125 35.625 90.875C33.9167 91.4167 32.0625 92.1042 30.0625 92.9375C28.0625 93.7292 25.75 94.8125 23.125 96.1875C21.9583 96.8125 20.75 97.3333 19.5 97.75C18.25 98.125 17.0625 98.4375 15.9375 98.6875C14.8542 98.9375 13.875 99.125 13 99.25C12.125 99.3333 11.5 99.375 11.125 99.375C8.625 99.375 6.47917 98.6667 4.6875 97.25C2.89583 95.8333 1.72917 93.9583 1.1875 91.625C0.770833 89.875 0.458333 88.3958 0.25 87.1875C0.0833333 85.9792 0 85.0625 0 84.4375C0 84.1875 0.0416667 83.8333 0.125 83.375C0.208333 82.875 0.291667 82.375 0.375 81.875C0.458333 81.375 0.541667 80.875 0.625 80.375C0.708333 79.875 0.75 79.4792 0.75 79.1875C0.75 78.7292 0.770833 78.1875 0.8125 77.5625C0.895833 76.9375 0.979167 76.2917 1.0625 75.625C1.1875 74.9583 1.29167 74.2917 1.375 73.625C1.5 72.9583 1.60417 72.3542 1.6875 71.8125C2.77083 66.2292 3.70833 60.5625 4.5 54.8125C5.33333 49.0208 6.39583 43.1042 7.6875 37.0625C7.8125 36.4792 7.95833 35.8333 8.125 35.125C8.29167 34.4167 8.45833 33.7083 8.625 33C8.79167 32.25 8.9375 31.5625 9.0625 30.9375C9.1875 30.2708 9.25 29.7292 9.25 29.3125C9.25 28.6042 9.08333 28.1458 8.75 27.9375C8.45833 27.6875 8.04167 27.375 7.5 27C6.91667 26.5417 6.41667 26.1458 6 25.8125C5.58333 25.4375 5.22917 25.0833 4.9375 24.75C4.6875 24.375 4.5 23.9792 4.375 23.5625C4.25 23.1458 4.1875 22.6458 4.1875 22.0625C4.1875 21.1458 4.41667 20.1667 4.875 19.125C5.375 18.0417 6.02083 17.0625 6.8125 16.1875C7.64583 15.2708 8.58333 14.5208 9.625 13.9375C10.7083 13.3125 11.8333 13 13 13C13.875 13 15.0208 13.0625 16.4375 13.1875C17.8542 13.2708 19.2708 13.3958 20.6875 13.5625C22.1042 13.6875 23.375 13.8125 24.5 13.9375C25.6667 14.0208 26.4167 14.0625 26.75 14.0625C29.7917 14.0625 33.2083 13.9375 37 13.6875C40.8333 13.4375 44.6458 13.3125 48.4375 13.3125C53.8958 13.3125 59 13.8542 63.75 14.9375C68.5 15.9792 72.8333 17.625 76.75 19.875C77.625 20.375 78.5833 20.9792 79.625 21.6875C80.6667 22.3958 81.7292 23.2708 82.8125 24.3125C83.8958 25.3125 84.9583 26.5208 86 27.9375C87.0833 29.3542 88.0833 31.0625 89 33.0625C90.0833 35.3958 90.9167 37.5833 91.5 39.625C92.125 41.625 92.4375 43.3542 92.4375 44.8125ZM161.375 60.0625C161.375 61.3958 161.312 62.625 161.188 63.75C161.062 64.8333 160.854 65.8958 160.562 66.9375C160.271 67.9792 159.917 69.0208 159.5 70.0625C159.083 71.1042 158.583 72.25 158 73.5C157.292 75.0417 156.167 76.7708 154.625 78.6875C153.083 80.5625 151.271 82.4583 149.188 84.375C147.104 86.2917 144.812 88.1667 142.312 90C139.854 91.7917 137.292 93.3958 134.625 94.8125C132 96.2292 129.375 97.375 126.75 98.25C124.125 99.0833 121.625 99.5 119.25 99.5C116.167 99.5 113.479 99 111.188 98C108.896 97 106.979 95.6875 105.438 94.0625C103.896 92.4375 102.75 90.5833 102 88.5C101.25 86.4167 100.875 84.2917 100.875 82.125C100.875 80.125 101.229 77.8125 101.938 75.1875C102.646 72.5208 103.562 69.8542 104.688 67.1875C105.812 64.4792 107.042 61.9167 108.375 59.5C109.708 57.0417 111 55.0208 112.25 53.4375C113.708 51.5625 115.479 49.75 117.562 48C119.646 46.25 121.958 44.7083 124.5 43.375C127.042 42 129.75 40.8958 132.625 40.0625C135.542 39.2292 138.542 38.8125 141.625 38.8125C144.083 38.8125 146.5 39.3958 148.875 40.5625C151.25 41.7292 153.354 43.2917 155.188 45.25C157.062 47.1667 158.562 49.4167 159.688 52C160.812 54.5417 161.375 57.2292 161.375 60.0625ZM148 61.4375C148 57.8958 147.021 55.1042 145.062 53.0625C143.146 51.0208 140.354 50 136.688 50C135.479 50 134.208 50.375 132.875 51.125C131.542 51.8333 130.25 52.75 129 53.875C127.75 54.9583 126.562 56.125 125.438 57.375C124.354 58.625 123.438 59.75 122.688 60.75C121.938 61.7917 121.104 63.1667 120.188 64.875C119.271 66.5417 118.417 68.3333 117.625 70.25C116.833 72.125 116.167 74.0208 115.625 75.9375C115.083 77.8542 114.812 79.5625 114.812 81.0625C114.812 81.8125 114.938 82.5625 115.188 83.3125C115.479 84.0625 115.854 84.75 116.312 85.375C116.812 85.9583 117.375 86.4583 118 86.875C118.667 87.25 119.396 87.4375 120.188 87.4375C121.354 87.4375 122.854 87.1042 124.688 86.4375C126.521 85.7708 128.458 84.8542 130.5 83.6875C132.583 82.5208 134.646 81.125 136.688 79.5C138.771 77.875 140.646 76.1042 142.312 74.1875C144.021 72.2292 145.396 70.1875 146.438 68.0625C147.479 65.8958 148 63.6875 148 61.4375ZM191.938 16.625C191.896 17.7917 191.729 19.2083 191.438 20.875C191.146 22.5417 190.708 24.5 190.125 26.75V26.6875C189.042 30.9792 187.521 34.8125 185.562 38.1875V38.125C184.521 40.0833 183.312 41.5417 181.938 42.5C180.562 43.4167 179.083 43.875 177.5 43.875C176.583 43.875 175.708 43.7292 174.875 43.4375C174.042 43.1458 173.312 42.75 172.688 42.25C172.062 41.75 171.562 41.1667 171.188 40.5C170.812 39.7917 170.625 39.0417 170.625 38.25C170.625 37.75 170.729 37.1875 170.938 36.5625C171.146 35.9375 171.396 35.3333 171.688 34.75C172.021 34.125 172.375 33.5625 172.75 33.0625C173.125 32.5208 173.5 32.0833 173.875 31.75C174.792 30.9167 175.562 30.1042 176.188 29.3125C176.812 28.4792 177.312 27.6042 177.688 26.6875C178.104 25.7708 178.396 24.7917 178.562 23.75C178.729 22.6667 178.812 21.4792 178.812 20.1875C178.812 19.1042 178.5 18.2292 177.875 17.5625C177.417 16.9792 176.917 16.3958 176.375 15.8125C175.833 15.2292 175.229 14.6458 174.562 14.0625C172.562 12.3125 171.562 11.0833 171.562 10.375L171.125 7.25C171.125 6.54167 171.167 5.91667 171.25 5.375C171.333 4.83333 171.396 4.45833 171.438 4.25C171.896 3.04167 173.229 1.97917 175.438 1.0625C176.271 0.645833 177 0.375 177.625 0.25C178.292 0.0833333 178.896 0 179.438 0C180.646 0 181.896 0.583333 183.188 1.75C183.562 2.08333 183.979 2.47917 184.438 2.9375C184.896 3.35417 185.312 3.79167 185.688 4.25C186.854 5.41667 187.646 6.25 188.062 6.75C188.521 7.20833 188.792 7.47917 188.875 7.5625C189.458 8.4375 189.958 9.25 190.375 10C190.792 10.75 191.062 11.4167 191.188 12C191.438 12.5833 191.625 13.2917 191.75 14.125C191.875 14.9167 191.938 15.7292 191.938 16.5625V16.625ZM242.188 86.375C242.188 88.5417 241.771 90.6875 240.938 92.8125C240.146 94.8958 239.083 96.875 237.75 98.75C236.417 100.625 234.875 102.354 233.125 103.938C231.375 105.521 229.562 106.875 227.688 108C225.812 109.125 223.938 110 222.062 110.625C220.188 111.292 218.438 111.625 216.812 111.625C214.271 111.625 212.417 111 211.25 109.75C210.083 108.542 209.5 106.896 209.5 104.812C209.5 103.812 209.646 102.854 209.938 101.938C210.271 101.062 210.729 100.292 211.312 99.625C211.896 98.9167 212.604 98.375 213.438 98C214.312 97.5833 215.292 97.375 216.375 97.375H217.5C218.333 97.375 219.271 97.25 220.312 97C221.354 96.75 222.562 96.0625 223.938 94.9375C225.146 93.9375 226.021 92.75 226.562 91.375C227.146 89.9583 227.438 88.7292 227.438 87.6875C227.438 86.7708 227.208 85.9167 226.75 85.125C226.292 84.2917 225.688 83.4792 224.938 82.6875C224.188 81.8958 223.312 81.125 222.312 80.375C221.354 79.5833 220.333 78.7917 219.25 78C217.833 76.9167 216.396 75.7917 214.938 74.625C213.521 73.4167 212.229 72.1458 211.062 70.8125C209.896 69.4375 208.958 68 208.25 66.5C207.542 64.9583 207.188 63.3125 207.188 61.5625C207.188 59.8125 207.5 57.9792 208.125 56.0625C208.75 54.1458 209.583 52.25 210.625 50.375C211.708 48.5 212.938 46.7292 214.312 45.0625C215.688 43.3958 217.104 41.9167 218.562 40.625C220.062 39.3333 221.562 38.3125 223.062 37.5625C224.562 36.8125 225.958 36.4375 227.25 36.4375C229.375 36.4375 230.979 36.9583 232.062 38C233.188 39.0417 233.75 40.7083 233.75 43C233.75 44.0833 233.458 45.2083 232.875 46.375C232.333 47.5 231.625 48.625 230.75 49.75C229.917 50.8333 228.958 51.8958 227.875 52.9375C226.833 53.9792 225.812 54.9375 224.812 55.8125C223.938 56.6042 223.104 57.25 222.312 57.75C221.562 58.25 220.854 58.7917 220.188 59.375C220.604 60.125 221.146 60.8958 221.812 61.6875C222.479 62.4375 223.208 63.1875 224 63.9375C224.792 64.6458 225.583 65.3333 226.375 66C227.208 66.6667 227.979 67.2917 228.688 67.875C230.229 69.125 231.792 70.4375 233.375 71.8125C234.958 73.1875 236.396 74.6458 237.688 76.1875C239.021 77.6875 240.104 79.2917 240.938 81C241.771 82.6667 242.188 84.4583 242.188 86.375ZM350.938 27.25C350.938 26.3333 350.812 25.3958 350.562 24.4375C350.354 23.4792 350 22.625 349.5 21.875C349.042 21.0833 348.479 20.4375 347.812 19.9375C347.146 19.4375 346.375 19.1875 345.5 19.1875C344.542 19.1875 343.604 19.5 342.688 20.125C341.812 20.75 341.042 21.6042 340.375 22.6875C339.708 23.7292 339.167 24.9583 338.75 26.375C338.375 27.75 338.188 29.2083 338.188 30.75C338.188 33.1667 338.417 35.5208 338.875 37.8125C339.333 40.1042 339.958 42.2083 340.75 44.125C342.208 43 343.542 41.7708 344.75 40.4375C346 39.0625 347.083 37.6458 348 36.1875C348.917 34.7292 349.625 33.25 350.125 31.75C350.667 30.2083 350.938 28.7083 350.938 27.25ZM335.062 92.375C338.229 92.375 341.146 91.8333 343.812 90.75C346.521 89.6667 348.896 88.3958 350.938 86.9375C347.354 83.2708 344.062 79.3542 341.062 75.1875C338.104 71.0208 335.521 66.9167 333.312 62.875C331.646 64 330.083 65.25 328.625 66.625C327.208 68 325.958 69.4792 324.875 71.0625C323.833 72.6458 323 74.3125 322.375 76.0625C321.792 77.8125 321.5 79.625 321.5 81.5C321.5 83.0417 321.771 84.4792 322.312 85.8125C322.854 87.1458 323.688 88.2917 324.812 89.25C325.938 90.2083 327.354 90.9792 329.062 91.5625C330.771 92.1042 332.771 92.375 335.062 92.375ZM403.688 53.875C403.688 55.7083 403.208 57.2917 402.25 58.625C401.333 59.9167 399.958 60.75 398.125 61.125C396.583 61.5833 395.125 61.875 393.75 62C392.375 62.0833 391.125 62.2292 390 62.4375C388.542 62.7292 387.417 63.625 386.625 65.125C385.667 66.9583 384.583 68.8333 383.375 70.75C382.208 72.6667 380.979 74.5208 379.688 76.3125C378.396 78.1042 377.083 79.7708 375.75 81.3125C374.458 82.8542 373.208 84.1667 372 85.25C374.042 86.7083 376.25 87.8542 378.625 88.6875C381.042 89.4792 383.292 89.875 385.375 89.875C386.458 89.875 387.354 89.7917 388.062 89.625C388.771 89.4583 389.375 89.2917 389.875 89.125C390.417 88.9167 390.875 88.75 391.25 88.625C391.667 88.4583 392.125 88.375 392.625 88.375C393.792 88.375 394.708 88.8542 395.375 89.8125C396.042 90.7708 396.375 91.9583 396.375 93.375C396.375 94.0417 396.083 94.9792 395.5 96.1875C394.958 97.3542 394.146 98.5208 393.062 99.6875C391.979 100.812 390.625 101.792 389 102.625C387.375 103.458 385.5 103.875 383.375 103.875C378.958 103.875 374.833 103.104 371 101.562C367.208 100.062 363.625 98.0417 360.25 95.5C358.458 96.8333 356.417 98.1042 354.125 99.3125C351.833 100.521 349.396 101.583 346.812 102.5C344.271 103.417 341.625 104.125 338.875 104.625C336.167 105.167 333.458 105.438 330.75 105.438C327 105.438 323.583 104.875 320.5 103.75C317.417 102.625 314.771 101.042 312.562 99C310.396 96.9167 308.708 94.4583 307.5 91.625C306.333 88.75 305.75 85.5625 305.75 82.0625C305.75 78.9792 306.271 76.0417 307.312 73.25C308.396 70.4583 309.854 67.8333 311.688 65.375C313.562 62.875 315.729 60.5625 318.188 58.4375C320.688 56.2708 323.354 54.2917 326.188 52.5C326.729 52.1667 327.104 51.8125 327.312 51.4375C327.521 51.0625 327.625 50.6875 327.625 50.3125C327.625 49.7708 327.438 49 327.062 48C326.688 46.9583 326.271 45.6875 325.812 44.1875C325.354 42.6458 324.938 40.8958 324.562 38.9375C324.188 36.9375 324 34.7083 324 32.25C324 28.75 324.542 25.4792 325.625 22.4375C326.708 19.3542 328.25 16.6875 330.25 14.4375C332.25 12.1875 334.646 10.4167 337.438 9.125C340.271 7.79167 343.417 7.125 346.875 7.125C349.917 7.125 352.542 7.75 354.75 9C357 10.2083 358.833 11.7917 360.25 13.75C361.708 15.6667 362.792 17.7917 363.5 20.125C364.208 22.4167 364.562 24.6667 364.562 26.875C364.562 29.5 364.125 31.9792 363.25 34.3125C362.417 36.6042 361.271 38.8125 359.812 40.9375C358.354 43.0208 356.625 45.0208 354.625 46.9375C352.625 48.8542 350.458 50.7083 348.125 52.5C347.333 53.0833 346.792 53.625 346.5 54.125C346.25 54.625 346.125 55.1042 346.125 55.5625C346.125 56.2292 346.354 57.125 346.812 58.25C347.271 59.3333 347.917 60.5 348.75 61.75C351.125 65.25 353.521 68.4792 355.938 71.4375C358.354 74.3542 360.625 76.6875 362.75 78.4375C363.625 77.5625 364.562 76.4583 365.562 75.125C366.604 73.7917 367.583 72.3958 368.5 70.9375C369.417 69.4792 370.208 68.0417 370.875 66.625C371.583 65.2083 372.062 63.9583 372.312 62.875C371.521 62.7917 370.75 62.7292 370 62.6875C369.25 62.6042 368.5 62.4792 367.75 62.3125C364.958 61.9792 363.021 61.125 361.938 59.75C360.896 58.3333 360.375 56.6458 360.375 54.6875C360.375 53.8125 360.583 53 361 52.25C361.417 51.4583 361.917 50.7917 362.5 50.25C363.083 49.7083 363.729 49.2917 364.438 49C365.146 48.6667 365.771 48.5 366.312 48.5C367.271 48.5 368.208 48.6458 369.125 48.9375C370.083 49.1875 371.146 49.5 372.312 49.875C373.479 50.2083 374.833 50.5208 376.375 50.8125C377.958 51.0625 379.833 51.1875 382 51.1875C384 51.1875 385.812 51.125 387.438 51C389.104 50.875 390.604 50.7292 391.938 50.5625C393.312 50.3958 394.562 50.25 395.688 50.125C396.812 50 397.854 49.9375 398.812 49.9375C402.062 49.9375 403.688 51.25 403.688 53.875ZM555.938 44.8125C555.938 42.0625 555.396 39.7292 554.312 37.8125C553.271 35.8542 551.875 34.2083 550.125 32.875C548.417 31.5417 546.458 30.5 544.25 29.75C542.042 29 539.792 28.4375 537.5 28.0625C534.708 27.6042 531.917 27.2708 529.125 27.0625C526.333 26.8125 523.5 26.6875 520.625 26.6875C519.417 26.6875 518.104 26.75 516.688 26.875C515.312 26.9583 513.875 27.0833 512.375 27.25C510.875 27.375 509.354 27.5208 507.812 27.6875C506.312 27.8125 504.833 27.8958 503.375 27.9375C502.667 31.5208 501.958 35.1042 501.25 38.6875C500.583 42.2292 499.958 45.5417 499.375 48.625C498.792 51.6667 498.292 54.3542 497.875 56.6875C497.458 59.0208 497.188 60.7292 497.062 61.8125C496.729 64.1875 496.396 66.6667 496.062 69.25C495.771 71.7917 495.625 74.125 495.625 76.25C495.625 77.2917 495.667 78.2083 495.75 79C495.833 79.7917 495.979 80.5417 496.188 81.25C500.021 80.5833 504.062 79.5417 508.312 78.125C512.562 76.6667 517.292 75.0625 522.5 73.3125C525.25 72.3958 527.833 71.4583 530.25 70.5C532.708 69.5417 534.917 68.6042 536.875 67.6875C538.875 66.7292 540.604 65.8125 542.062 64.9375C543.562 64.0208 544.75 63.1667 545.625 62.375C545.917 62.125 546.354 61.6458 546.938 60.9375C547.562 60.2292 548.25 59.375 549 58.375C549.792 57.375 550.583 56.2917 551.375 55.125C552.208 53.9167 552.958 52.7083 553.625 51.5C554.292 50.25 554.833 49.0625 555.25 47.9375C555.708 46.7708 555.938 45.7292 555.938 44.8125ZM571.188 44.8125C571.188 50.1458 569.104 55.4375 564.938 60.6875C561.146 65.4792 556.146 69.9583 549.938 74.125C547.188 76 544.208 77.8125 541 79.5625C537.792 81.2708 534.604 82.8542 531.438 84.3125C528.229 85.7708 525.188 87.0417 522.312 88.125C519.479 89.2083 516.833 90.125 514.375 90.875C512.667 91.4167 510.812 92.1042 508.812 92.9375C506.812 93.7292 504.5 94.8125 501.875 96.1875C500.708 96.8125 499.5 97.3333 498.25 97.75C497 98.125 495.812 98.4375 494.688 98.6875C493.604 98.9375 492.625 99.125 491.75 99.25C490.875 99.3333 490.25 99.375 489.875 99.375C487.375 99.375 485.229 98.6667 483.438 97.25C481.646 95.8333 480.479 93.9583 479.938 91.625C479.521 89.875 479.208 88.3958 479 87.1875C478.833 85.9792 478.75 85.0625 478.75 84.4375C478.75 84.1875 478.792 83.8333 478.875 83.375C478.958 82.875 479.042 82.375 479.125 81.875C479.208 81.375 479.292 80.875 479.375 80.375C479.458 79.875 479.5 79.4792 479.5 79.1875C479.5 78.7292 479.521 78.1875 479.562 77.5625C479.646 76.9375 479.729 76.2917 479.812 75.625C479.938 74.9583 480.042 74.2917 480.125 73.625C480.25 72.9583 480.354 72.3542 480.438 71.8125C481.521 66.2292 482.458 60.5625 483.25 54.8125C484.083 49.0208 485.146 43.1042 486.438 37.0625C486.562 36.4792 486.708 35.8333 486.875 35.125C487.042 34.4167 487.208 33.7083 487.375 33C487.542 32.25 487.688 31.5625 487.812 30.9375C487.938 30.2708 488 29.7292 488 29.3125C488 28.6042 487.833 28.1458 487.5 27.9375C487.208 27.6875 486.792 27.375 486.25 27C485.667 26.5417 485.167 26.1458 484.75 25.8125C484.333 25.4375 483.979 25.0833 483.688 24.75C483.438 24.375 483.25 23.9792 483.125 23.5625C483 23.1458 482.938 22.6458 482.938 22.0625C482.938 21.1458 483.167 20.1667 483.625 19.125C484.125 18.0417 484.771 17.0625 485.562 16.1875C486.396 15.2708 487.333 14.5208 488.375 13.9375C489.458 13.3125 490.583 13 491.75 13C492.625 13 493.771 13.0625 495.188 13.1875C496.604 13.2708 498.021 13.3958 499.438 13.5625C500.854 13.6875 502.125 13.8125 503.25 13.9375C504.417 14.0208 505.167 14.0625 505.5 14.0625C508.542 14.0625 511.958 13.9375 515.75 13.6875C519.583 13.4375 523.396 13.3125 527.188 13.3125C532.646 13.3125 537.75 13.8542 542.5 14.9375C547.25 15.9792 551.583 17.625 555.5 19.875C556.375 20.375 557.333 20.9792 558.375 21.6875C559.417 22.3958 560.479 23.2708 561.562 24.3125C562.646 25.3125 563.708 26.5208 564.75 27.9375C565.833 29.3542 566.833 31.0625 567.75 33.0625C568.833 35.3958 569.667 37.5833 570.25 39.625C570.875 41.625 571.188 43.3542 571.188 44.8125ZM672.5 46.5C672.5 47.2917 672.229 48.1458 671.688 49.0625C671.188 49.9375 670.521 50.8333 669.688 51.75C668.896 52.625 667.979 53.5 666.938 54.375C665.896 55.25 664.854 56.0625 663.812 56.8125C662.771 57.5208 661.771 58.1458 660.812 58.6875C659.896 59.2292 659.125 59.6458 658.5 59.9375C657.375 60.3958 655.917 60.8333 654.125 61.25C652.375 61.625 650.521 61.9583 648.562 62.25C646.646 62.5 644.771 62.7083 642.938 62.875C641.146 63.0417 639.625 63.125 638.375 63.125C638.083 63.125 637.667 63.1042 637.125 63.0625C636.625 62.9792 636.062 62.875 635.438 62.75C634.854 62.625 634.25 62.4792 633.625 62.3125C633.042 62.1042 632.542 61.8542 632.125 61.5625C632.583 62.5208 632.833 63.5833 632.875 64.75C632.958 65.875 633 67 633 68.125C633 68.9167 632.917 69.8542 632.75 70.9375C632.583 72.0208 632.354 73.125 632.062 74.25C631.812 75.375 631.5 76.4583 631.125 77.5C630.75 78.5417 630.354 79.4167 629.938 80.125C628.896 81.9167 627.771 83.5625 626.562 85.0625C625.396 86.5625 624.083 87.9583 622.625 89.25C621.167 90.5417 619.521 91.75 617.688 92.875C615.854 94 613.729 95.1042 611.312 96.1875C608.729 97.3125 606.146 98.1042 603.562 98.5625C600.979 98.9792 598.312 99.1875 595.562 99.1875C593.521 99.1875 591.708 98.6667 590.125 97.625C588.542 96.5417 587.208 95.1042 586.125 93.3125C585.042 91.5208 584.208 89.4583 583.625 87.125C583.083 84.7917 582.812 82.3542 582.812 79.8125C582.812 79.1875 582.854 78.4167 582.938 77.5C583.062 76.5417 583.208 75.5833 583.375 74.625C583.583 73.6667 583.792 72.7292 584 71.8125C584.25 70.8958 584.479 70.125 584.688 69.5C585.271 67.75 586.104 65.75 587.188 63.5C588.312 61.25 589.625 58.9583 591.125 56.625C592.625 54.25 594.292 51.9375 596.125 49.6875C597.958 47.3958 599.896 45.375 601.938 43.625C604.021 41.8333 606.167 40.3958 608.375 39.3125C610.625 38.2292 612.875 37.6875 615.125 37.6875C616.083 37.6875 616.854 37.7917 617.438 38C618.021 38.1667 618.5 38.4167 618.875 38.75C619.25 39.0417 619.583 39.3958 619.875 39.8125C620.208 40.1875 620.562 40.5625 620.938 40.9375C621.229 40.8542 621.521 40.7917 621.812 40.75C622.146 40.7083 622.479 40.6875 622.812 40.6875C624.104 40.6875 625.375 41.1875 626.625 42.1875C627.875 43.1875 629.146 44.2917 630.438 45.5C631.021 46.0417 631.604 46.6042 632.188 47.1875C632.812 47.7292 633.375 48.2292 633.875 48.6875C634.375 49.1042 634.812 49.4583 635.188 49.75C635.604 50 635.896 50.125 636.062 50.125C637.146 50.125 638.312 50.125 639.562 50.125C640.854 50.0833 642.146 50.0417 643.438 50C644.771 49.9167 646.042 49.8125 647.25 49.6875C648.5 49.5625 649.625 49.4167 650.625 49.25C650.75 49.2083 651.292 49.0833 652.25 48.875C653.208 48.625 654.354 48.3333 655.688 48C657.062 47.625 658.542 47.2292 660.125 46.8125C661.708 46.3958 663.167 46.0208 664.5 45.6875C665.875 45.3125 667.042 45.0208 668 44.8125C669 44.5625 669.583 44.4375 669.75 44.4375C670.583 44.4375 671.25 44.5417 671.75 44.75C672.25 44.9583 672.5 45.5417 672.5 46.5ZM600.375 88.1875C603.75 88.1875 606.729 87.2917 609.312 85.5C611.938 83.7083 614.146 81.3333 615.938 78.375C617.729 75.375 619.104 71.9792 620.062 68.1875C621.062 64.3542 621.583 60.4167 621.625 56.375C621.333 55.75 620.896 55.1042 620.312 54.4375C619.771 53.7708 619.146 53.1875 618.438 52.6875C617.729 52.1458 617 51.7083 616.25 51.375C615.5 51.0417 614.812 50.875 614.188 50.875C613.188 50.875 612.104 51.2708 610.938 52.0625C609.771 52.8542 608.688 53.6667 607.688 54.5C606.688 55.3333 605.688 56.4375 604.688 57.8125C603.729 59.1458 602.833 60.6458 602 62.3125C601.167 63.9792 600.396 65.75 599.688 67.625C598.979 69.4583 598.375 71.2917 597.875 73.125C597.375 74.9167 596.979 76.6667 596.688 78.375C596.438 80.0833 596.312 81.6042 596.312 82.9375C596.312 83.6042 596.417 84.25 596.625 84.875C596.833 85.5 597.104 86.0625 597.438 86.5625C597.812 87.0625 598.25 87.4583 598.75 87.75C599.25 88.0417 599.792 88.1875 600.375 88.1875ZM772.312 50.875C772.312 53.2083 771.479 55.7917 769.812 58.625C768.188 61.4167 766.042 64.2292 763.375 67.0625C760.75 69.8958 757.792 72.6458 754.5 75.3125C751.25 77.9792 747.979 80.3542 744.688 82.4375C741.438 84.4792 738.354 86.125 735.438 87.375C732.521 88.625 730.104 89.25 728.188 89.25C725.521 89.25 723.25 88.6875 721.375 87.5625C719.542 86.3958 718 84.875 716.75 83C715.542 81.0833 714.583 78.9167 713.875 76.5C713.167 74.0417 712.646 71.5208 712.312 68.9375C711.688 70.4375 710.854 72.0625 709.812 73.8125C708.771 75.5625 707.646 77.2917 706.438 79C705.229 80.7083 704 82.3333 702.75 83.875C701.542 85.375 700.417 86.6667 699.375 87.75C697.917 89.2917 696.312 90.7917 694.562 92.25C692.812 93.6667 690.938 94.9167 688.938 96C686.938 97.0833 684.812 97.9583 682.562 98.625C680.354 99.25 678.042 99.5625 675.625 99.5625C673.583 99.5625 671.771 99.1458 670.188 98.3125C668.646 97.4375 667.354 96.3125 666.312 94.9375C665.271 93.5625 664.479 92 663.938 90.25C663.438 88.4583 663.188 86.6667 663.188 84.875C663.188 83.2917 663.312 81.6667 663.562 80C663.854 78.2917 664.167 76.5833 664.5 74.875C664.833 73.125 665.146 71.4167 665.438 69.75C665.771 68.0417 666 66.3958 666.125 64.8125C666.208 63.6042 666.292 62.3125 666.375 60.9375C666.458 59.5625 666.542 58.1875 666.625 56.8125C666.708 55.3958 666.812 54 666.938 52.625C667.104 51.2083 667.292 49.8958 667.5 48.6875C667.667 47.8125 667.896 46.9792 668.188 46.1875C668.521 45.3958 668.979 44.7083 669.562 44.125C670.146 43.5 670.875 43.0208 671.75 42.6875C672.667 42.3125 673.771 42.125 675.062 42.125C677.688 42.125 679.521 42.9167 680.562 44.5C681.646 46.0417 682.188 48.3958 682.188 51.5625C682.188 52.5208 682.125 53.625 682 54.875C681.875 56.125 681.708 57.4375 681.5 58.8125C681.292 60.1458 681.042 61.5 680.75 62.875C680.5 64.25 680.208 65.5625 679.875 66.8125C679.167 69.6042 678.5 72.3333 677.875 75C677.25 77.625 676.938 79.9792 676.938 82.0625C676.938 83.3958 677.167 84.5 677.625 85.375C678.125 86.25 678.729 86.6875 679.438 86.6875C681.229 86.6875 683.083 86.1458 685 85.0625C686.958 83.9375 688.854 82.5625 690.688 80.9375C692.521 79.2708 694.25 77.4792 695.875 75.5625C697.542 73.6042 698.958 71.8125 700.125 70.1875C701.208 68.6875 702.292 66.8333 703.375 64.625C704.5 62.4167 705.583 60.1042 706.625 57.6875C707.708 55.2292 708.75 52.8125 709.75 50.4375C710.75 48.0208 711.646 45.8958 712.438 44.0625C713.521 41.6042 714.771 39.7083 716.188 38.375C717.604 37.0417 718.979 36.375 720.312 36.375C721.896 36.375 723.062 36.6875 723.812 37.3125C724.562 37.9375 724.938 39.0833 724.938 40.75C724.938 41.4167 724.854 42.4375 724.688 43.8125C724.521 45.1875 724.333 46.6458 724.125 48.1875C723.917 49.6875 723.729 51.1458 723.562 52.5625C723.396 53.9375 723.312 54.9792 723.312 55.6875C723.312 56.3542 723.312 57.1667 723.312 58.125C723.354 59.0833 723.396 60.0833 723.438 61.125C723.479 62.125 723.542 63.1042 723.625 64.0625C723.75 65.0208 723.875 65.8333 724 66.5C724.167 67.2083 724.438 68.125 724.812 69.25C725.188 70.375 725.646 71.4792 726.188 72.5625C726.771 73.6042 727.396 74.5208 728.062 75.3125C728.729 76.0625 729.438 76.4375 730.188 76.4375C732.354 76.4375 734.646 75.875 737.062 74.75C739.521 73.625 742.021 72.1667 744.562 70.375C747.104 68.5417 749.646 66.4792 752.188 64.1875C754.771 61.8958 757.271 59.6042 759.688 57.3125C760.688 56.3542 761.667 55.3958 762.625 54.4375C763.625 53.4375 764.583 52.5625 765.5 51.8125C766.417 51.0208 767.271 50.375 768.062 49.875C768.854 49.375 769.542 49.125 770.125 49.125C770.792 49.125 771.312 49.3333 771.688 49.75C772.104 50.1667 772.312 50.5417 772.312 50.875ZM815.562 44.625C815.562 45.3333 815.333 46.3125 814.875 47.5625C814.417 48.8125 813.854 50.3333 813.188 52.125C812.562 53.875 811.917 55.8958 811.25 58.1875C810.583 60.4792 810.042 63 809.625 65.75C809.5 66.5833 809.312 67.8542 809.062 69.5625C808.854 71.2708 808.604 73.2083 808.312 75.375C808.062 77.5417 807.792 79.8125 807.5 82.1875C807.208 84.5208 806.938 86.7292 806.688 88.8125C806.438 90.8958 806.208 92.7292 806 94.3125C805.792 95.8958 805.646 97 805.562 97.625C805.396 98.9167 805.042 100.479 804.5 102.312C804 104.188 803.396 106.125 802.688 108.125C801.979 110.125 801.208 112.062 800.375 113.938C799.542 115.854 798.729 117.5 797.938 118.875C796.604 120.792 795.042 122.5 793.25 124C791.458 125.542 789.583 126.833 787.625 127.875C785.667 128.958 783.667 129.771 781.625 130.312C779.583 130.896 777.646 131.188 775.812 131.188C774.062 131.188 772.312 131.062 770.562 130.812C768.854 130.562 767.104 130.146 765.312 129.562C763.562 128.979 761.75 128.188 759.875 127.188C758 126.229 756.062 125.021 754.062 123.562C752.812 122.646 751.542 121.583 750.25 120.375C748.958 119.208 747.812 118.021 746.812 116.812C745.771 115.604 744.938 114.438 744.312 113.312C743.646 112.188 743.312 111.208 743.312 110.375C743.312 109.042 743.708 107.958 744.5 107.125C745.25 106.292 746.354 105.875 747.812 105.875C748.688 105.875 749.75 106.25 751 107C752.292 107.792 753.688 108.729 755.188 109.812C756.729 110.896 758.354 112.021 760.062 113.188C761.771 114.354 763.5 115.333 765.25 116.125C766.542 116.708 767.646 117.146 768.562 117.438C769.479 117.771 770.375 118 771.25 118.125C772.125 118.292 773.042 118.375 774 118.375C775 118.417 776.208 118.438 777.625 118.438C778.208 118.438 778.938 118.25 779.812 117.875C780.688 117.542 781.604 117.042 782.562 116.375C783.562 115.708 784.521 114.875 785.438 113.875C786.354 112.875 787.125 111.729 787.75 110.438C788.875 108.229 789.812 105.729 790.562 102.938C791.312 100.188 791.938 97.375 792.438 94.5C792.979 91.5833 793.396 88.7292 793.688 85.9375C794.021 83.1042 794.312 80.5417 794.562 78.25C792.646 80.2083 790.562 82.0208 788.312 83.6875C786.062 85.3125 783.771 86.7292 781.438 87.9375C779.104 89.1458 776.771 90.0833 774.438 90.75C772.104 91.4167 769.854 91.75 767.688 91.75C765.812 91.75 764.083 91.4792 762.5 90.9375C760.958 90.3958 759.625 89.5833 758.5 88.5C757.375 87.375 756.479 85.9792 755.812 84.3125C755.188 82.6458 754.875 80.6875 754.875 78.4375C754.875 75.8125 755.375 72.9375 756.375 69.8125C757.417 66.6458 758.979 63.4167 761.062 60.125C763.146 56.7917 765.771 53.4792 768.938 50.1875C772.146 46.8542 775.938 43.6875 780.312 40.6875C781.854 39.6458 783.458 38.6667 785.125 37.75C786.833 36.7917 788.562 35.9583 790.312 35.25C792.104 34.5417 793.896 33.9792 795.688 33.5625C797.521 33.1458 799.333 32.9375 801.125 32.9375C802.667 32.9375 803.979 33.0625 805.062 33.3125C806.146 33.5208 807.083 33.8125 807.875 34.1875C808.708 34.5625 809.417 35 810 35.5C810.625 35.9583 811.208 36.4375 811.75 36.9375C812.208 37.3542 812.667 37.9167 813.125 38.625C813.583 39.2917 813.979 40 814.312 40.75C814.688 41.5 814.979 42.2292 815.188 42.9375C815.438 43.6458 815.562 44.2083 815.562 44.625ZM801.125 48.4375C801.125 48.0625 801.083 47.625 801 47.125C800.958 46.625 800.854 46.1458 800.688 45.6875C800.562 45.1875 800.354 44.7917 800.062 44.5C799.812 44.1667 799.479 44 799.062 44C798.396 44 797.583 44.1458 796.625 44.4375C795.667 44.6875 794.625 45.0625 793.5 45.5625C792.375 46.0625 791.208 46.7083 790 47.5C788.833 48.25 787.688 49.125 786.562 50.125C783.646 52.75 781.083 55.375 778.875 58C776.667 60.625 774.812 63.1458 773.312 65.5625C771.812 67.9792 770.667 70.2083 769.875 72.25C769.125 74.2917 768.75 76 768.75 77.375C768.75 78.3333 768.938 79.0417 769.312 79.5C769.729 79.9583 770.167 80.1875 770.625 80.1875C771.583 80.1875 772.812 79.9167 774.312 79.375C775.812 78.8333 777.333 78.1667 778.875 77.375C780.458 76.5833 781.938 75.75 783.312 74.875C784.688 74 785.75 73.2292 786.5 72.5625C788.458 70.8542 790.312 68.9167 792.062 66.75C793.854 64.5417 795.417 62.3125 796.75 60.0625C798.083 57.8125 799.146 55.6667 799.938 53.625C800.729 51.5833 801.125 49.8542 801.125 48.4375ZM942.562 59.8125C942.562 60.3958 942.354 61.1042 941.938 61.9375C941.562 62.7292 941.021 63.6667 940.312 64.75C939.896 65.4167 939.333 66.1875 938.625 67.0625C937.958 67.9375 937.229 68.8333 936.438 69.75C935.688 70.6667 934.938 71.5625 934.188 72.4375C933.438 73.3125 932.75 74.0625 932.125 74.6875C929.75 77.1042 927.208 79.4375 924.5 81.6875C921.833 83.9375 919.021 85.9375 916.062 87.6875C913.146 89.4375 910.125 90.8542 907 91.9375C903.875 92.9792 900.646 93.5 897.312 93.5C894.438 93.5 891.917 92.9792 889.75 91.9375C887.625 90.8958 885.958 89.2292 884.75 86.9375C884.333 86.1875 883.896 85 883.438 83.375C883.021 81.75 882.625 80.0208 882.25 78.1875C881.875 76.3125 881.562 74.4792 881.312 72.6875C881.062 70.8958 880.896 69.4375 880.812 68.3125C880.771 67.5625 880.708 66.7083 880.625 65.75C880.542 64.75 880.417 63.8125 880.25 62.9375C880.125 62.0625 879.938 61.3333 879.688 60.75C879.479 60.125 879.188 59.8125 878.812 59.8125C878.396 59.8125 878 59.9167 877.625 60.125C876.875 60.5 875.625 61.4792 873.875 63.0625C872.167 64.6042 870.208 66.5833 868 69C865.792 71.375 863.458 74.1042 861 77.1875C858.542 80.2292 856.208 83.4375 854 86.8125C853.167 88.0625 852.312 89.4583 851.438 91C850.562 92.5 849.688 94.0417 848.812 95.625C847.979 97.1667 847.146 98.6667 846.312 100.125C845.521 101.583 844.792 102.875 844.125 104C843.667 104.667 843.125 105.229 842.5 105.688C841.875 106.188 841.25 106.583 840.625 106.875C840.042 107.167 839.5 107.375 839 107.5C838.5 107.625 838.125 107.688 837.875 107.688C836.958 107.688 836.083 107.479 835.25 107.062C834.458 106.646 833.75 106.104 833.125 105.438C832.542 104.812 832.062 104.083 831.688 103.25C831.354 102.417 831.188 101.583 831.188 100.75C831.188 100.292 831.25 99.4792 831.375 98.3125C831.542 97.1042 831.729 95.75 831.938 94.25C832.188 92.75 832.417 91.1875 832.625 89.5625C832.875 87.9375 833.083 86.4375 833.25 85.0625C833.583 82.3958 833.917 79.4792 834.25 76.3125C834.625 73.1458 834.958 69.9583 835.25 66.75C835.583 63.5417 835.875 60.4167 836.125 57.375C836.417 54.2917 836.625 51.5208 836.75 49.0625C836.792 48.2708 836.854 47.2292 836.938 45.9375C837.021 44.6042 837.104 43.1458 837.188 41.5625C837.312 39.9375 837.417 38.2708 837.5 36.5625C837.583 34.8125 837.667 33.1042 837.75 31.4375C837.875 29.7708 837.958 28.2083 838 26.75C838.083 25.2917 838.146 24.0625 838.188 23.0625C838.229 21.8958 838.292 20.8125 838.375 19.8125C838.5 18.7708 838.667 17.75 838.875 16.75C839.125 15.75 839.417 14.75 839.75 13.75C840.125 12.7083 840.604 11.5833 841.188 10.375C841.396 9.91667 841.729 9.41667 842.188 8.875C842.646 8.33333 843.188 7.83333 843.812 7.375C844.479 6.91667 845.188 6.54167 845.938 6.25C846.729 5.91667 847.521 5.75 848.312 5.75C850.062 5.75 851.542 6.375 852.75 7.625C854 8.83333 854.625 10.5417 854.625 12.75C854.625 13.375 854.542 14.2083 854.375 15.25C854.25 16.2917 854.083 17.3125 853.875 18.3125C853.708 19.3125 853.542 20.2292 853.375 21.0625C853.25 21.8542 853.188 22.3542 853.188 22.5625C853.062 23.1458 852.896 24.2083 852.688 25.75C852.479 27.25 852.229 29.0417 851.938 31.125C851.688 33.1667 851.417 35.4167 851.125 37.875C850.833 40.2917 850.521 42.75 850.188 45.25C849.896 47.7083 849.604 50.1042 849.312 52.4375C849.021 54.7708 848.75 56.8542 848.5 58.6875C848.292 60.5208 848.125 62.0208 848 63.1875C847.875 64.3542 847.792 65.0208 847.75 65.1875C847.625 66.0208 847.458 67.2083 847.25 68.75C847.083 70.25 846.875 71.8125 846.625 73.4375C846.417 75.0208 846.208 76.5208 846 77.9375C845.833 79.3542 845.708 80.375 845.625 81C846 80.4583 846.479 79.7292 847.062 78.8125C847.688 77.8542 848.312 76.8958 848.938 75.9375C849.604 74.9375 850.229 74 850.812 73.125C851.396 72.25 851.833 71.6042 852.125 71.1875C852.792 70.1875 853.562 69.0625 854.438 67.8125C855.354 66.5625 856.312 65.2917 857.312 64C858.312 62.6667 859.354 61.375 860.438 60.125C861.521 58.8333 862.562 57.6667 863.562 56.625C864.854 55.2917 866.312 53.9167 867.938 52.5C869.562 51.0833 871.271 49.7917 873.062 48.625C874.854 47.4583 876.688 46.5 878.562 45.75C880.438 45 882.25 44.625 884 44.625C884.458 44.625 885.021 44.7292 885.688 44.9375C886.396 45.1458 887.083 45.4583 887.75 45.875C888.458 46.25 889.104 46.7292 889.688 47.3125C890.271 47.8958 890.688 48.5625 890.938 49.3125C891.479 50.8125 891.938 52.6458 892.312 54.8125C892.688 56.9375 893.021 59.1667 893.312 61.5C893.646 63.7917 893.979 66.0833 894.312 68.375C894.646 70.625 895.021 72.6667 895.438 74.5C895.854 76.2917 896.333 77.75 896.875 78.875C897.458 80 898.167 80.5625 899 80.5625C900.125 80.5625 901.167 80.5208 902.125 80.4375C903.125 80.3542 904.083 80.2083 905 80C905.958 79.7917 906.917 79.5208 907.875 79.1875C908.833 78.8542 909.854 78.4167 910.938 77.875C913.229 76.75 915.208 75.6875 916.875 74.6875C918.542 73.6875 920.104 72.6458 921.562 71.5625C923.062 70.4375 924.562 69.2083 926.062 67.875C927.604 66.5 929.354 64.9167 931.312 63.125C933.396 61.2083 935.208 59.6667 936.75 58.5C938.333 57.2917 939.479 56.6875 940.188 56.6875C940.688 56.6875 941.083 56.7917 941.375 57C941.708 57.2083 941.958 57.4792 942.125 57.8125C942.292 58.1042 942.396 58.4375 942.438 58.8125C942.521 59.1875 942.562 59.5208 942.562 59.8125ZM970.562 86.375C970.562 88.5417 970.146 90.6875 969.312 92.8125C968.521 94.8958 967.458 96.875 966.125 98.75C964.792 100.625 963.25 102.354 961.5 103.938C959.75 105.521 957.938 106.875 956.062 108C954.188 109.125 952.312 110 950.438 110.625C948.562 111.292 946.812 111.625 945.188 111.625C942.646 111.625 940.792 111 939.625 109.75C938.458 108.542 937.875 106.896 937.875 104.812C937.875 103.812 938.021 102.854 938.312 101.938C938.646 101.062 939.104 100.292 939.688 99.625C940.271 98.9167 940.979 98.375 941.812 98C942.688 97.5833 943.667 97.375 944.75 97.375H945.875C946.708 97.375 947.646 97.25 948.688 97C949.729 96.75 950.938 96.0625 952.312 94.9375C953.521 93.9375 954.396 92.75 954.938 91.375C955.521 89.9583 955.812 88.7292 955.812 87.6875C955.812 86.7708 955.583 85.9167 955.125 85.125C954.667 84.2917 954.062 83.4792 953.312 82.6875C952.562 81.8958 951.688 81.125 950.688 80.375C949.729 79.5833 948.708 78.7917 947.625 78C946.208 76.9167 944.771 75.7917 943.312 74.625C941.896 73.4167 940.604 72.1458 939.438 70.8125C938.271 69.4375 937.333 68 936.625 66.5C935.917 64.9583 935.562 63.3125 935.562 61.5625C935.562 59.8125 935.875 57.9792 936.5 56.0625C937.125 54.1458 937.958 52.25 939 50.375C940.083 48.5 941.312 46.7292 942.688 45.0625C944.062 43.3958 945.479 41.9167 946.938 40.625C948.438 39.3333 949.938 38.3125 951.438 37.5625C952.938 36.8125 954.333 36.4375 955.625 36.4375C957.75 36.4375 959.354 36.9583 960.438 38C961.562 39.0417 962.125 40.7083 962.125 43C962.125 44.0833 961.833 45.2083 961.25 46.375C960.708 47.5 960 48.625 959.125 49.75C958.292 50.8333 957.333 51.8958 956.25 52.9375C955.208 53.9792 954.188 54.9375 953.188 55.8125C952.312 56.6042 951.479 57.25 950.688 57.75C949.938 58.25 949.229 58.7917 948.562 59.375C948.979 60.125 949.521 60.8958 950.188 61.6875C950.854 62.4375 951.583 63.1875 952.375 63.9375C953.167 64.6458 953.958 65.3333 954.75 66C955.583 66.6667 956.354 67.2917 957.062 67.875C958.604 69.125 960.167 70.4375 961.75 71.8125C963.333 73.1875 964.771 74.6458 966.062 76.1875C967.396 77.6875 968.479 79.2917 969.312 81C970.146 82.6667 970.562 84.4583 970.562 86.375Z" fill="#C8C4BF"/>
</svg>
