<svg width="88" height="88" viewBox="0 0 88 88" fill="none" xmlns="http://www.w3.org/2000/svg">
<path d="M41.0667 11.7333V2.93333C41.0667 2.15536 41.3757 1.40926 41.9258 0.859153C42.4759 0.309047 43.222 0 44 0C44.778 0 45.5241 0.309047 46.0742 0.859153C46.6243 1.40926 46.9333 2.15536 46.9333 2.93333V11.7333C46.9333 12.5113 46.6243 13.2574 46.0742 13.8075C45.5241 14.3576 44.778 14.6667 44 14.6667C43.222 14.6667 42.4759 14.3576 41.9258 13.8075C41.3757 13.2574 41.0667 12.5113 41.0667 11.7333ZM67.4667 44C67.4667 48.6413 66.0904 53.1783 63.5118 57.0374C60.9333 60.8965 57.2683 63.9042 52.9803 65.6804C48.6923 67.4565 43.974 67.9212 39.4219 67.0158C34.8698 66.1103 30.6884 63.8753 27.4066 60.5934C24.1247 57.3116 21.8897 53.1302 20.9842 48.5781C20.0788 44.026 20.5435 39.3077 22.3196 35.0197C24.0958 30.7317 27.1035 27.0667 30.9626 24.4882C34.8217 21.9096 39.3587 20.5333 44 20.5333C50.2217 20.5401 56.1866 23.0147 60.5859 27.4141C64.9853 31.8134 67.4599 37.7783 67.4667 44ZM61.6 44C61.6 40.519 60.5678 37.1163 58.6339 34.222C56.7 31.3277 53.9512 29.0718 50.7352 27.7397C47.5193 26.4076 43.9805 26.0591 40.5664 26.7382C37.1523 27.4173 34.0163 29.0935 31.5549 31.5549C29.0935 34.0163 27.4173 37.1523 26.7382 40.5664C26.0591 43.9805 26.4076 47.5193 27.7397 50.7352C29.0718 53.9512 31.3277 56.7 34.222 58.6339C37.1163 60.5678 40.519 61.6 44 61.6C48.6663 61.5951 53.1401 59.7393 56.4397 56.4397C59.7393 53.1401 61.5951 48.6663 61.6 44ZM18.458 22.6087C19.0084 23.1591 19.7549 23.4683 20.5333 23.4683C21.3117 23.4683 22.0583 23.1591 22.6087 22.6087C23.1591 22.0583 23.4683 21.3117 23.4683 20.5333C23.4683 19.7549 23.1591 19.0084 22.6087 18.458L16.742 12.5913C16.1916 12.0409 15.4451 11.7317 14.6667 11.7317C13.8883 11.7317 13.1417 12.0409 12.5913 12.5913C12.0409 13.1417 11.7317 13.8883 11.7317 14.6667C11.7317 15.4451 12.0409 16.1916 12.5913 16.742L18.458 22.6087ZM18.458 65.3913L12.5913 71.258C12.0409 71.8084 11.7317 72.5549 11.7317 73.3333C11.7317 74.1117 12.0409 74.8583 12.5913 75.4087C13.1417 75.9591 13.8883 76.2683 14.6667 76.2683C15.4451 76.2683 16.1916 75.9591 16.742 75.4087L22.6087 69.542C22.8812 69.2695 23.0974 68.9459 23.2449 68.5898C23.3924 68.2337 23.4683 67.8521 23.4683 67.4667C23.4683 67.0812 23.3924 66.6996 23.2449 66.3435C23.0974 65.9874 22.8812 65.6639 22.6087 65.3913C22.3361 65.1188 22.0126 64.9026 21.6565 64.7551C21.3004 64.6076 20.9188 64.5317 20.5333 64.5317C20.1479 64.5317 19.7663 64.6076 19.4102 64.7551C19.0541 64.9026 18.7305 65.1188 18.458 65.3913ZM67.4667 23.4667C67.852 23.467 68.2336 23.3914 68.5897 23.2441C68.9458 23.0969 69.2694 22.881 69.542 22.6087L75.4087 16.742C75.9591 16.1916 76.2683 15.4451 76.2683 14.6667C76.2683 13.8883 75.9591 13.1417 75.4087 12.5913C74.8583 12.0409 74.1117 11.7317 73.3333 11.7317C72.5549 11.7317 71.8084 12.0409 71.258 12.5913L65.3913 18.458C64.9806 18.8682 64.7009 19.3911 64.5875 19.9604C64.4741 20.5297 64.5322 21.1199 64.7544 21.6562C64.9767 22.1925 65.353 22.6508 65.8358 22.973C66.3186 23.2953 66.8862 23.4671 67.4667 23.4667ZM69.542 65.3913C68.9916 64.8409 68.2451 64.5317 67.4667 64.5317C66.6883 64.5317 65.9417 64.8409 65.3913 65.3913C64.8409 65.9417 64.5317 66.6883 64.5317 67.4667C64.5317 68.2451 64.8409 68.9916 65.3913 69.542L71.258 75.4087C71.5305 75.6812 71.8541 75.8974 72.2102 76.0449C72.5663 76.1924 72.9479 76.2683 73.3333 76.2683C73.7188 76.2683 74.1004 76.1924 74.4565 76.0449C74.8126 75.8974 75.1361 75.6812 75.4087 75.4087C75.6812 75.1361 75.8974 74.8126 76.0449 74.4565C76.1924 74.1004 76.2683 73.7188 76.2683 73.3333C76.2683 72.9479 76.1924 72.5663 76.0449 72.2102C75.8974 71.8541 75.6812 71.5305 75.4087 71.258L69.542 65.3913ZM14.6667 44C14.6667 43.222 14.3576 42.4759 13.8075 41.9258C13.2574 41.3757 12.5113 41.0667 11.7333 41.0667H2.93333C2.15536 41.0667 1.40926 41.3757 0.859153 41.9258C0.309047 42.4759 0 43.222 0 44C0 44.778 0.309047 45.5241 0.859153 46.0742C1.40926 46.6243 2.15536 46.9333 2.93333 46.9333H11.7333C12.5113 46.9333 13.2574 46.6243 13.8075 46.0742C14.3576 45.5241 14.6667 44.778 14.6667 44ZM44 73.3333C43.222 73.3333 42.4759 73.6424 41.9258 74.1925C41.3757 74.7426 41.0667 75.4887 41.0667 76.2667V85.0667C41.0667 85.8446 41.3757 86.5907 41.9258 87.1409C42.4759 87.691 43.222 88 44 88C44.778 88 45.5241 87.691 46.0742 87.1409C46.6243 86.5907 46.9333 85.8446 46.9333 85.0667V76.2667C46.9333 75.4887 46.6243 74.7426 46.0742 74.1925C45.5241 73.6424 44.778 73.3333 44 73.3333ZM85.0667 41.0667H76.2667C75.4887 41.0667 74.7426 41.3757 74.1925 41.9258C73.6424 42.4759 73.3333 43.222 73.3333 44C73.3333 44.778 73.6424 45.5241 74.1925 46.0742C74.7426 46.6243 75.4887 46.9333 76.2667 46.9333H85.0667C85.8446 46.9333 86.5907 46.6243 87.1409 46.0742C87.691 45.5241 88 44.778 88 44C88 43.222 87.691 42.4759 87.1409 41.9258C86.5907 41.3757 85.8446 41.0667 85.0667 41.0667Z" fill="#FFF8F0"/>
</svg>
