<svg width="57" height="57" viewBox="0 0 57 57" fill="none" xmlns="http://www.w3.org/2000/svg">
<path d="M16.53 0H40.47C49.59 0 57 7.41 57 16.53V40.47C57 44.854 55.2584 49.0585 52.1585 52.1585C49.0585 55.2584 44.854 57 40.47 57H16.53C7.41 57 0 49.59 0 40.47V16.53C0 12.146 1.74155 7.9415 4.84153 4.84153C7.9415 1.74155 12.146 0 16.53 0ZM15.96 5.7C13.2389 5.7 10.6292 6.78096 8.70508 8.70508C6.78096 10.6292 5.7 13.2389 5.7 15.96V41.04C5.7 46.7115 10.2885 51.3 15.96 51.3H41.04C43.7611 51.3 46.3708 50.219 48.2949 48.2949C50.219 46.3708 51.3 43.7611 51.3 41.04V15.96C51.3 10.2885 46.7115 5.7 41.04 5.7H15.96ZM43.4625 9.975C44.4073 9.975 45.3135 10.3503 45.9816 11.0184C46.6497 11.6865 47.025 12.5927 47.025 13.5375C47.025 14.4823 46.6497 15.3885 45.9816 16.0566C45.3135 16.7247 44.4073 17.1 43.4625 17.1C42.5177 17.1 41.6115 16.7247 40.9434 16.0566C40.2753 15.3885 39.9 14.4823 39.9 13.5375C39.9 12.5927 40.2753 11.6865 40.9434 11.0184C41.6115 10.3503 42.5177 9.975 43.4625 9.975ZM28.5 14.25C32.2793 14.25 35.9039 15.7513 38.5763 18.4237C41.2487 21.0961 42.75 24.7207 42.75 28.5C42.75 32.2793 41.2487 35.9039 38.5763 38.5763C35.9039 41.2487 32.2793 42.75 28.5 42.75C24.7207 42.75 21.0961 41.2487 18.4237 38.5763C15.7513 35.9039 14.25 32.2793 14.25 28.5C14.25 24.7207 15.7513 21.0961 18.4237 18.4237C21.0961 15.7513 24.7207 14.25 28.5 14.25ZM28.5 19.95C26.2324 19.95 24.0577 20.8508 22.4542 22.4542C20.8508 24.0577 19.95 26.2324 19.95 28.5C19.95 30.7676 20.8508 32.9423 22.4542 34.5458C24.0577 36.1492 26.2324 37.05 28.5 37.05C30.7676 37.05 32.9423 36.1492 34.5458 34.5458C36.1492 32.9423 37.05 30.7676 37.05 28.5C37.05 26.2324 36.1492 24.0577 34.5458 22.4542C32.9423 20.8508 30.7676 19.95 28.5 19.95Z" fill="#FFF8F0"/>
</svg>
