<svg width="323" height="37" viewBox="0 0 323 37" fill="none" xmlns="http://www.w3.org/2000/svg">
<g clip-path="url(#clip0_65_249)">
<path d="M67.3589 25.7943V24.8974L68.0811 24.8356C69.5571 24.7119 70.3107 23.9697 70.3107 22.5471V7.39366C70.3107 5.97109 69.5571 5.22888 68.0811 5.10518L67.3589 5.04333V4.1465H76.7483C83.6255 4.1465 88.65 8.6616 88.65 14.8157C88.65 21.0317 83.4371 25.7943 76.6855 25.7943H67.3589ZM72.5089 24.5263H76.3087C81.6472 24.5263 84.9758 20.8153 84.9758 14.9395C84.9758 9.28011 81.5843 5.41444 76.5913 5.41444H72.5089V6.03294H73.6394V23.9078H72.5089V24.5263ZM101.346 26.1344C95.5676 26.1344 90.9199 21.5266 90.9199 15.0632C90.9199 8.59975 95.6618 3.77539 101.471 3.77539C107.218 3.77539 111.897 8.35235 111.897 14.8157C111.897 21.2792 107.155 26.1344 101.346 26.1344ZM101.66 24.8046C105.397 24.8046 108.191 21.2482 108.191 15.558C108.191 9.0327 105.145 5.07426 101.032 5.07426C97.2947 5.07426 94.4999 8.63067 94.4999 14.3209C94.4999 20.8462 97.5459 24.8046 101.66 24.8046ZM113.865 11.7232L113.74 11.5377C115.749 10.6099 117.006 8.84715 117.006 7.11533V6.52775H116.503V7.26996C116.44 7.33181 116.158 7.39366 115.906 7.39366C114.996 7.39366 114.242 6.62052 114.242 5.66184C114.242 4.61038 115.059 3.80632 116.158 3.80632C117.445 3.80632 118.293 4.85778 118.293 6.40405C118.293 8.72345 116.535 10.8264 113.865 11.7232ZM128.885 26.1344C126.341 26.1344 124.174 25.0211 122.416 22.7636L122.447 23.815C122.541 23.9387 123.201 24.5263 123.421 24.7119L121.097 26.0726L121.003 18.5268H122.102L122.918 20.2895C124.3 23.2893 126.278 24.7428 128.948 24.7428C131.742 24.7428 133.501 23.2275 133.501 20.8771C133.501 19.2072 132.37 17.8464 130.298 17.0424L124.928 14.9395C122.447 13.9498 121.16 12.218 121.16 9.89861C121.16 6.31127 123.798 3.83724 127.597 3.83724C130.172 3.83724 132.308 5.13611 133.627 7.45551L133.595 6.31127C133.438 6.06387 132.747 5.25981 132.622 5.16703L134.883 3.89909L134.977 11.1356H133.878L133.313 9.83676C131.931 6.65145 130.141 5.22888 127.503 5.22888C125.305 5.22888 123.86 6.52775 123.86 8.56882C123.86 10.0842 124.865 11.3212 126.655 12.0325L132.433 14.2591C134.977 15.2487 136.39 17.1661 136.39 19.671C136.39 23.5367 133.375 26.1344 128.885 26.1344ZM159.311 22.9491C157.333 25.0211 155.198 26.0726 152.403 26.0726C148.415 26.0726 145.557 23.6913 145.557 20.2895C145.557 17.8774 146.468 16.2692 151.021 13.8261C149.671 11.7232 149.168 10.4243 149.168 9.00178C149.168 6.43497 151.115 3.89909 155.072 3.89909C157.553 3.89909 159.531 5.53814 159.531 7.61014C159.531 9.34196 158.526 10.579 155.731 12.0634L153.219 13.4241L153.596 13.9498L154.444 13.486C156.642 16.5476 158.777 19.1144 159.971 20.4442C160.41 19.7638 160.881 18.8979 161.447 17.6609L162.043 16.3929C162.734 14.9085 162.514 13.9189 161.227 13.7643L160.505 13.6715V12.8674H166.628V13.6406C165.372 13.9189 164.524 14.5683 163.896 15.7126L162.483 18.3412C161.918 19.4236 161.321 20.3823 160.693 21.2482C162.671 23.3202 164.053 24.0934 165.843 24.0934C166.471 24.0934 167.476 24.0006 167.978 23.7841C166.911 25.052 165.152 25.9489 163.425 25.9489C161.855 25.9489 160.693 25.5159 159.091 24.0934L159.782 23.3821L159.311 22.9491ZM151.869 8.07402C151.9 9.37288 152.34 10.4862 153.627 12.3726C155.794 11.383 156.956 9.77491 156.956 7.79569C156.956 6.12572 155.92 4.91963 154.507 4.91963C152.968 4.91963 151.869 6.24942 151.869 8.07402ZM157.898 22.9491C155.92 20.8771 152.497 16.0218 151.398 14.3828C149.576 15.558 148.634 17.3207 148.634 19.5473C148.634 22.6399 150.55 24.65 153.439 24.65C155.637 24.65 156.893 23.815 157.898 22.9491ZM176.256 25.7943V24.8974L176.979 24.8356C178.455 24.7119 179.208 23.9697 179.208 22.5471V7.39366C179.208 5.97109 178.455 5.22888 176.979 5.10518L176.256 5.04333V4.1465H185.646C192.523 4.1465 197.548 8.6616 197.548 14.8157C197.548 21.0317 192.335 25.7943 185.583 25.7943H176.256ZM181.406 24.5263H185.206C190.545 24.5263 193.873 20.8153 193.873 14.9395C193.873 9.28011 190.482 5.41444 185.489 5.41444H181.406V6.03294H182.537V23.9078H181.406V24.5263ZM210.243 26.1344C204.465 26.1344 199.818 21.5266 199.818 15.0632C199.818 8.59975 204.559 3.77539 210.369 3.77539C216.116 3.77539 220.795 8.35235 220.795 14.8157C220.795 21.2792 216.053 26.1344 210.243 26.1344ZM210.557 24.8046C214.294 24.8046 217.089 21.2482 217.089 15.558C217.089 9.0327 214.043 5.07426 209.929 5.07426C206.192 5.07426 203.397 8.63067 203.397 14.3209C203.397 20.8462 206.443 24.8046 210.557 24.8046ZM233.464 26.1344C228.502 26.1344 225.362 23.2584 225.362 18.6814V7.39366C225.362 5.97109 224.608 5.22888 223.132 5.10518L222.41 5.04333V4.1465H231.611V5.04333L230.889 5.10518C229.413 5.22888 228.659 5.97109 228.659 7.39366V18.0629C228.659 21.8049 230.889 24.2171 234.312 24.2171C238.143 24.2171 240.498 21.3101 240.498 16.6403V7.73384C240.498 6.18757 239.744 5.32166 238.237 5.13611L237.515 5.04333V4.1465H245.114V5.04333L244.392 5.13611C242.885 5.32166 242.162 6.15664 242.162 7.73384V17.0424C242.162 22.578 238.771 26.1344 233.464 26.1344ZM257.132 26.0726C251.166 26.0726 246.738 21.4647 246.738 15.2487C246.738 8.75437 251.323 3.83724 257.446 3.83724C260.367 3.83724 262.722 5.04333 264.229 7.39366V6.31127C264.166 6.15664 263.444 5.38351 263.256 5.22888L265.642 3.89909V11.4758H264.575L263.978 10.0842C262.628 6.89885 260.367 5.29073 257.383 5.29073C253.207 5.29073 250.412 9.12548 250.412 14.8157C250.412 20.5679 253.521 24.4335 258.137 24.4335C260.241 24.4335 262.094 23.7223 264.229 22.1141V21.341L263.036 22.1451V18.6196C263.036 17.2279 262.251 16.4548 260.649 16.3311L259.927 16.2692V15.3724H268.94V16.2692L268.217 16.3311C266.836 16.4548 266.145 17.197 266.145 18.6196V26.1344L263.915 24.0624C262.062 25.3922 259.77 26.0726 257.132 26.0726ZM275.216 15.2796V15.8981H276.347V22.5471C276.347 23.9697 277.1 24.7119 278.576 24.8356L279.299 24.8974V25.7943H270.066V24.8974L270.788 24.8356C272.264 24.7119 273.018 23.9697 273.018 22.5471V7.39366C273.018 5.97109 272.264 5.22888 270.788 5.10518L270.066 5.04333V4.1465H279.299V5.04333L278.576 5.10518C277.1 5.22888 276.347 5.97109 276.347 7.39366V14.1972H286.678V7.39366C286.678 5.97109 285.924 5.22888 284.449 5.10518L283.726 5.04333V4.1465H292.959V5.04333L292.236 5.10518C290.761 5.22888 290.007 5.97109 290.007 7.39366V22.5471C290.007 23.9697 290.761 24.7119 292.236 24.8356L292.959 24.8974V25.7943H283.726V24.8974L284.449 24.8356C285.924 24.7119 286.678 23.9697 286.678 22.5471V15.8981H287.809V15.2796H275.216ZM302.397 26.1344C299.853 26.1344 297.687 25.0211 295.928 22.7636L295.959 23.815C296.054 23.9387 296.713 24.5263 296.933 24.7119L294.609 26.0726L294.515 18.5268H295.614L296.43 20.2895C297.812 23.2893 299.79 24.7428 302.46 24.7428C305.255 24.7428 307.013 23.2275 307.013 20.8771C307.013 19.2072 305.883 17.8464 303.81 17.0424L298.44 14.9395C295.959 13.9498 294.672 12.218 294.672 9.89861C294.672 6.31127 297.31 3.83724 301.109 3.83724C303.684 3.83724 305.82 5.13611 307.139 7.45551L307.107 6.31127C306.95 6.06387 306.259 5.25981 306.134 5.16703L308.395 3.89909L308.489 11.1356H307.39L306.825 9.83676C305.443 6.65145 303.653 5.22888 301.015 5.22888C298.817 5.22888 297.372 6.52775 297.372 8.56882C297.372 10.0842 298.377 11.3212 300.167 12.0325L305.945 14.2591C308.489 15.2487 309.902 17.1661 309.902 19.671C309.902 23.5367 306.888 26.1344 302.397 26.1344Z" fill="#1F1F1F"/>
<path d="M39.517 1.40747C22.5246 0.302986 10.9942 2.51193 8.26318 3.34026C4.19217 4.57505 12.2078 8.31042 23.4349 8.0343C32.8666 7.80231 38.6579 6.596 42.2478 5.39759C42.9312 5.16947 43.5348 4.94163 44.0685 4.72086C47.4063 3.34026 49.949 6.66437 50.1372 8.0343C50.4406 10.2433 48.0132 12.1761 41.641 14.3851C36.5433 16.1522 25.559 17.73 14.0285 19.0791C4.62208 20.1796 3.71173 20.1836 1.89103 22.9448C-0.0837567 25.9396 7.35295 29.2955 14.0285 29.5716C20.7041 29.8477 32.7331 29.8632 40.4273 27.3627C44.6754 25.9821 46.6491 25.1046 47.4063 23.497C48.3166 21.5642 43.3605 21.196 41.641 20.4597" stroke="#1F1F1F" stroke-width="3"/>
<path d="M41.9445 5.54883C41.2365 11.1633 37.4537 22.6682 27.9865 23.7727C16.1525 25.1533 11.9045 17.1458 8.87012 11.3473" stroke="#1F1F1F" stroke-width="3"/>
</g>
<defs>
<clipPath id="clip0_65_249">
<rect width="323" height="37" fill="white"/>
</clipPath>
</defs>
</svg>
