<svg width="58" height="58" viewBox="0 0 58 58" fill="none" xmlns="http://www.w3.org/2000/svg">
<path d="M46.11 25.81C36.83 20.3 21.315 19.72 12.47 22.475C11.02 22.91 9.57 22.04 9.135 20.735C8.7 19.285 9.57 17.835 10.875 17.4C21.17 14.355 38.135 14.935 48.865 21.315C50.17 22.04 50.605 23.78 49.88 25.085C49.155 26.1 47.415 26.535 46.11 25.81ZM45.82 33.93C45.095 34.945 43.79 35.38 42.775 34.655C34.945 29.87 23.055 28.42 13.92 31.32C12.76 31.61 11.455 31.03 11.165 29.87C10.875 28.71 11.455 27.405 12.615 27.115C23.2 23.925 36.25 25.52 45.24 31.03C46.11 31.465 46.545 32.915 45.82 33.93ZM42.34 41.905C41.76 42.775 40.745 43.065 39.875 42.485C33.06 38.28 24.505 37.41 14.355 39.73C13.34 40.02 12.47 39.295 12.18 38.425C11.89 37.41 12.615 36.54 13.485 36.25C24.505 33.785 34.075 34.8 41.615 39.44C42.63 39.875 42.775 41.035 42.34 41.905ZM29 0C25.1917 0 21.4206 0.750107 17.9022 2.20749C14.3837 3.66488 11.1868 5.801 8.4939 8.4939C3.05535 13.9325 0 21.3087 0 29C0 36.6913 3.05535 44.0675 8.4939 49.5061C11.1868 52.199 14.3837 54.3351 17.9022 55.7925C21.4206 57.2499 25.1917 58 29 58C36.6913 58 44.0675 54.9447 49.5061 49.5061C54.9447 44.0675 58 36.6913 58 29C58 25.1917 57.2499 21.4206 55.7925 17.9022C54.3351 14.3837 52.199 11.1868 49.5061 8.4939C46.8132 5.801 43.6163 3.66488 40.0978 2.20749C36.5794 0.750107 32.8083 0 29 0Z" fill="#FFF8F0"/>
</svg>
